
<?xml version="1.0" standalone="no"?>
<!DOCTYPE svg PUBLIC "-//W3C//DTD SVG 20010904//EN"
 "http://www.w3.org/TR/2001/REC-SVG-20010904/DTD/svg10.dtd">
<svg version="1.0" xmlns="http://www.w3.org/2000/svg"
 width="481.000000pt" height="490.000000pt" viewBox="0 0 481.000000 490.000000"
 preserveAspectRatio="xMidYMid meet">

<g transform="translate(0.000000,490.000000) scale(0.100000,-0.100000)"
fill="#000000" stroke="none">
<path d="M2460 4855 c-106 -30 -200 -108 -243 -203 -22 -49 -30 -174 -15 -217
7 -17 -2 -24 -69 -55 -101 -45 -190 -131 -234 -223 l-30 -65 -72 -22 c-91 -27
-160 -66 -262 -145 -113 -88 -179 -161 -274 -305 -105 -156 -200 -352 -258
-530 -44 -135 -46 -138 -77 -144 -110 -21 -842 -462 -873 -526 -20 -42 -36
-185 -28 -255 30 -286 310 -877 668 -1413 90 -134 95 -144 86 -175 -12 -38 -9
-335 3 -422 12 -87 23 -108 71 -133 l42 -22 1901 0 c1575 0 1903 2 1913 13 21
26 39 96 50 189 19 165 33 687 34 1278 2 495 -1 599 -16 743 -66 612 -204
1056 -425 1367 -221 313 -573 532 -988 615 -21 5 -21 5 -3 57 42 120 18 289
-55 402 -66 101 -152 165 -257 192 -81 21 -153 14 -218 -21 l-49 -27 -67 27
c-84 33 -180 41 -255 20z m-974 -2122 c21 -4 21 -6 7 -35 -22 -44 -19 -120 6
-161 26 -43 85 -84 146 -103 59 -17 160 -4 219 29 52 29 86 93 86 160 l0 50
53 -7 c72 -9 157 -36 157 -50 0 -22 -49 -199 -57 -207 -10 -10 -182 -27 -353
-33 -163 -7 -404 6 -424 23 -12 10 -11 19 6 64 16 42 19 67 15 132 -3 44 -13
97 -22 119 l-16 38 78 -7 c43 -3 88 -9 99 -12z m2461 4 c19 -19 -45 -216 -78
-244 -17 -14 -51 -22 -249 -60 -122 -23 -171 -28 -310 -28 -109 0 -181 5 -211
14 -53 15 -57 21 -108 171 l-30 85 52 12 c29 7 68 15 88 18 l36 6 0 -38 c1
-103 53 -181 137 -202 88 -22 159 -24 219 -7 104 30 157 100 163 216 2 36 4
67 4 69 0 7 280 -5 287 -12z"/>
</g>
</svg>
